<svg width="21" height="21" viewBox="0 0 21 21" fill="none" xmlns="http://www.w3.org/2000/svg">
<g id="Icon" clip-path="url(#clip0_8360_23800)">
<path id="Vector" d="M12 7.92236C12 8.05257 11.9772 8.17301 11.9316 8.28369C11.8861 8.39437 11.8177 8.49528 11.7266 8.58643C11.6354 8.67757 11.5345 8.74593 11.4238 8.7915C11.3132 8.83708 11.1927 8.85986 11.0625 8.85986C10.9323 8.85986 10.8118 8.83708 10.7012 8.7915C10.5905 8.74593 10.4896 8.67757 10.3984 8.58643C10.3073 8.49528 10.2389 8.39437 10.1934 8.28369C10.1478 8.17301 10.125 8.05257 10.125 7.92236C10.125 7.79216 10.1478 7.67171 10.1934 7.56104C10.2389 7.45036 10.3073 7.34945 10.3984 7.2583C10.4896 7.16716 10.5905 7.0988 10.7012 7.05322C10.8118 7.00765 10.9323 6.98486 11.0625 6.98486C11.1927 6.98486 11.3132 7.00765 11.4238 7.05322C11.5345 7.0988 11.6354 7.16716 11.7266 7.2583C11.8177 7.34945 11.8861 7.45036 11.9316 7.56104C11.9772 7.67171 12 7.79216 12 7.92236ZM17 4.48486V15.7349C17 15.9041 16.9674 16.0636 16.9023 16.2134C16.8372 16.3631 16.7461 16.4966 16.6289 16.6138C16.5117 16.731 16.3783 16.8221 16.2285 16.8872C16.0788 16.9523 15.9193 16.9849 15.75 16.9849H2C1.83073 16.9849 1.67122 16.9523 1.52148 16.8872C1.37174 16.8221 1.23828 16.731 1.12109 16.6138C1.00391 16.4966 0.91276 16.3631 0.847656 16.2134C0.782552 16.0636 0.75 15.9041 0.75 15.7349V4.48486C0.75 4.31559 0.782552 4.15609 0.847656 4.00635C0.91276 3.85661 1.00391 3.72314 1.12109 3.60596C1.23828 3.48877 1.37174 3.39762 1.52148 3.33252C1.67122 3.26742 1.83073 3.23486 2 3.23486H15.75C15.9193 3.23486 16.0788 3.26742 16.2285 3.33252C16.3783 3.39762 16.5117 3.48877 16.6289 3.60596C16.7461 3.72314 16.8372 3.85661 16.9023 4.00635C16.9674 4.15609 17 4.31559 17 4.48486ZM15.75 12.981V4.48486H2V11.731L4.87109 8.85986C4.98828 8.74268 5.12174 8.65153 5.27148 8.58643C5.42122 8.52132 5.58073 8.48877 5.75 8.48877C5.91927 8.48877 6.07878 8.52132 6.22852 8.58643C6.37826 8.65153 6.51172 8.74268 6.62891 8.85986L10.125 12.356L11.7461 10.7349C11.8633 10.6177 11.9967 10.5265 12.1465 10.4614C12.2962 10.3963 12.4557 10.3638 12.625 10.3638C12.7943 10.3638 12.9538 10.3963 13.1035 10.4614C13.2533 10.5265 13.3867 10.6177 13.5039 10.7349L15.75 12.981Z" fill="#2EBB77"/>
</g>
<defs>
<clipPath id="clip0_8360_23800">
<rect width="20" height="20" fill="white" transform="matrix(1 0 0 -1 0.75 20.1099)"/>
</clipPath>
</defs>
</svg>
