<svg width="25" height="26" viewBox="0 0 25 26" fill="none" xmlns="http://www.w3.org/2000/svg">
<g id="Heading 2" clip-path="url(#clip0_8360_23852)">
<path id="Vector" d="M18.0288 4.48683H1.5024C1.29895 4.48683 1.10724 4.52595 0.927265 4.6042C0.747289 4.68245 0.586877 4.792 0.446026 4.93285C0.305176 5.0737 0.195625 5.23412 0.117375 5.41409C0.0391251 5.59407 0 5.78578 0 5.98923V18.0085C0 18.2119 0.0391251 18.4036 0.117375 18.5836C0.195625 18.7636 0.305176 18.924 0.446026 19.0648C0.586877 19.2057 0.747289 19.3152 0.927265 19.3935C1.10724 19.4717 1.29895 19.5109 1.5024 19.5109H7.08947L8.4745 21.8349C8.5371 21.9444 8.61535 22.0423 8.70925 22.1283C8.80315 22.2144 8.9127 22.2887 9.0379 22.3513C9.14745 22.4296 9.26482 22.4844 9.39002 22.5157C9.51522 22.547 9.64042 22.5626 9.76562 22.5626C9.89083 22.5626 10.016 22.547 10.1412 22.5157C10.2664 22.4844 10.3838 22.4296 10.4934 22.3513C10.6186 22.2887 10.7281 22.2144 10.822 22.1283C10.9159 22.0423 10.9942 21.9444 11.0568 21.8349L12.4418 19.5109H18.0288C18.2323 19.5109 18.424 19.4717 18.604 19.3935C18.784 19.3152 18.9444 19.2057 19.0852 19.0648C19.2261 18.924 19.3356 18.7636 19.4139 18.5836C19.4921 18.4036 19.5312 18.2119 19.5312 18.0085V5.98923C19.5312 5.78578 19.4921 5.59407 19.4139 5.41409C19.3356 5.23412 19.2261 5.0737 19.0852 4.93285C18.9444 4.792 18.784 4.68245 18.604 4.6042C18.424 4.52595 18.2323 4.48683 18.0288 4.48683ZM12.7704 14.2525H6.76082C6.66692 14.2525 6.57302 14.2329 6.47912 14.1938C6.38522 14.1546 6.29914 14.1038 6.22089 14.0412C6.15829 13.9629 6.10743 13.8769 6.0683 13.7829C6.02918 13.689 6.00962 13.5951 6.00962 13.5012C6.00962 13.4073 6.02918 13.3134 6.0683 13.2195C6.10743 13.1256 6.15829 13.0396 6.22089 12.9613C6.29914 12.8987 6.38522 12.8479 6.47912 12.8087C6.57302 12.7696 6.66692 12.75 6.76082 12.75H12.7704C12.8643 12.75 12.9582 12.7696 13.0521 12.8087C13.146 12.8479 13.2321 12.8987 13.3104 12.9613C13.373 13.0396 13.4238 13.1256 13.4629 13.2195C13.5021 13.3134 13.5216 13.4073 13.5216 13.5012C13.5216 13.5951 13.5021 13.689 13.4629 13.7829C13.4238 13.8769 13.373 13.9629 13.3104 14.0412C13.2321 14.1038 13.146 14.1546 13.0521 14.1938C12.9582 14.2329 12.8643 14.2525 12.7704 14.2525ZM12.7704 11.2476H6.76082C6.66692 11.2476 6.57302 11.2281 6.47912 11.189C6.38522 11.1498 6.29914 11.099 6.22089 11.0364C6.15829 10.9581 6.10743 10.872 6.0683 10.7781C6.02918 10.6842 6.00962 10.5903 6.00962 10.4964C6.00962 10.4025 6.02918 10.3086 6.0683 10.2147C6.10743 10.1208 6.15829 10.0348 6.22089 9.95651C6.29914 9.89391 6.38522 9.84305 6.47912 9.80393C6.57302 9.7648 6.66692 9.74524 6.76082 9.74524H12.7704C12.8643 9.74524 12.9582 9.7648 13.0521 9.80393C13.146 9.84305 13.2321 9.89391 13.3104 9.95651C13.373 10.0348 13.4238 10.1208 13.4629 10.2147C13.5021 10.3086 13.5216 10.4025 13.5216 10.4964C13.5216 10.5903 13.5021 10.6842 13.4629 10.7781C13.4238 10.872 13.373 10.9581 13.3104 11.0364C13.2321 11.099 13.146 11.1498 13.0521 11.189C12.9582 11.2281 12.8643 11.2476 12.7704 11.2476Z" fill="#2EBB77"/>
</g>
<defs>
<clipPath id="clip0_8360_23852">
<rect width="25" height="25" fill="white" transform="matrix(1 0 0 -1 0 25.2501)"/>
</clipPath>
</defs>
</svg>
