<svg width="21" height="21" viewBox="0 0 21 21" fill="none" xmlns="http://www.w3.org/2000/svg">
<g id="Icon" clip-path="url(#clip0_8360_23794)">
<path id="Vector" d="M14.5 8.2998C14.6693 8.2998 14.8288 8.26725 14.9785 8.20215C15.1283 8.13704 15.2617 8.0459 15.3789 7.92871C15.4961 7.81152 15.5872 7.67806 15.6523 7.52832C15.7174 7.37858 15.75 7.21908 15.75 7.0498V4.5498C15.75 4.38053 15.7174 4.22103 15.6523 4.07129C15.5872 3.92155 15.4961 3.78809 15.3789 3.6709C15.2617 3.55371 15.1283 3.46257 14.9785 3.39746C14.8288 3.33236 14.6693 3.2998 14.5 3.2998H12C11.8307 3.2998 11.6712 3.33236 11.5215 3.39746C11.3717 3.46257 11.2383 3.55371 11.1211 3.6709C11.0039 3.78809 10.9128 3.92155 10.8477 4.07129C10.7826 4.22103 10.75 4.38053 10.75 4.5498V5.1748H5.75V4.5498C5.75 4.38053 5.71745 4.22103 5.65234 4.07129C5.58724 3.92155 5.49609 3.78809 5.37891 3.6709C5.26172 3.55371 5.12826 3.46257 4.97852 3.39746C4.82878 3.33236 4.66927 3.2998 4.5 3.2998H2C1.83073 3.2998 1.67122 3.33236 1.52148 3.39746C1.37174 3.46257 1.23828 3.55371 1.12109 3.6709C1.00391 3.78809 0.91276 3.92155 0.847656 4.07129C0.782552 4.22103 0.75 4.38053 0.75 4.5498V7.0498C0.75 7.21908 0.782552 7.37858 0.847656 7.52832C0.91276 7.67806 1.00391 7.81152 1.12109 7.92871C1.23828 8.0459 1.37174 8.13704 1.52148 8.20215C1.67122 8.26725 1.83073 8.2998 2 8.2998H2.625V13.2998H2C1.83073 13.2998 1.67122 13.3324 1.52148 13.3975C1.37174 13.4626 1.23828 13.5537 1.12109 13.6709C1.00391 13.7881 0.91276 13.9215 0.847656 14.0713C0.782552 14.221 0.75 14.3805 0.75 14.5498V17.0498C0.75 17.2191 0.782552 17.3786 0.847656 17.5283C0.91276 17.6781 1.00391 17.8115 1.12109 17.9287C1.23828 18.0459 1.37174 18.137 1.52148 18.2021C1.67122 18.2673 1.83073 18.2998 2 18.2998H4.5C4.66927 18.2998 4.82878 18.2673 4.97852 18.2021C5.12826 18.137 5.26172 18.0459 5.37891 17.9287C5.49609 17.8115 5.58724 17.6781 5.65234 17.5283C5.71745 17.3786 5.75 17.2191 5.75 17.0498V16.4248H10.75V17.0498C10.75 17.2191 10.7826 17.3786 10.8477 17.5283C10.9128 17.6781 11.0039 17.8115 11.1211 17.9287C11.2383 18.0459 11.3717 18.137 11.5215 18.2021C11.6712 18.2673 11.8307 18.2998 12 18.2998H14.5C14.6693 18.2998 14.8288 18.2673 14.9785 18.2021C15.1283 18.137 15.2617 18.0459 15.3789 17.9287C15.4961 17.8115 15.5872 17.6781 15.6523 17.5283C15.7174 17.3786 15.75 17.2191 15.75 17.0498V14.5498C15.75 14.3805 15.7174 14.221 15.6523 14.0713C15.5872 13.9215 15.4961 13.7881 15.3789 13.6709C15.2617 13.5537 15.1283 13.4626 14.9785 13.3975C14.8288 13.3324 14.6693 13.2998 14.5 13.2998H13.875V8.2998H14.5ZM12.625 13.2998H12C11.8307 13.2998 11.6712 13.3324 11.5215 13.3975C11.3717 13.4626 11.2383 13.5537 11.1211 13.6709C11.0039 13.7881 10.9128 13.9215 10.8477 14.0713C10.7826 14.221 10.75 14.3805 10.75 14.5498V15.1748H5.75V14.5498C5.75 14.3805 5.71745 14.221 5.65234 14.0713C5.58724 13.9215 5.49609 13.7881 5.37891 13.6709C5.26172 13.5537 5.12826 13.4626 4.97852 13.3975C4.82878 13.3324 4.66927 13.2998 4.5 13.2998H3.875V8.2998H4.5C4.66927 8.2998 4.82878 8.26725 4.97852 8.20215C5.12826 8.13704 5.26172 8.0459 5.37891 7.92871C5.49609 7.81152 5.58724 7.67806 5.65234 7.52832C5.71745 7.37858 5.75 7.21908 5.75 7.0498V6.4248H10.75V7.0498C10.75 7.21908 10.7826 7.37858 10.8477 7.52832C10.9128 7.67806 11.0039 7.81152 11.1211 7.92871C11.2383 8.0459 11.3717 8.13704 11.5215 8.20215C11.6712 8.26725 11.8307 8.2998 12 8.2998H12.625V13.2998Z" fill="#B479D9"/>
</g>
<defs>
<clipPath id="clip0_8360_23794">
<rect width="20" height="20" fill="white" transform="matrix(1 0 0 -1 0.75 20.7998)"/>
</clipPath>
</defs>
</svg>
