<svg width="20" height="21" viewBox="0 0 20 21" fill="none" xmlns="http://www.w3.org/2000/svg">
<g id="Icon">
<path id="Vector" d="M7.24609 4.17871C7.51953 4.17871 7.75391 4.27637 7.94922 4.47168C8.14453 4.66699 8.24219 4.90137 8.24219 5.1748V16.4248C8.24219 16.6982 8.14453 16.9326 7.94922 17.1279C7.75391 17.3232 7.51953 17.4209 7.24609 17.4209C6.97266 17.4209 6.73828 17.3232 6.54297 17.1279C6.34766 16.9326 6.25 16.6982 6.25 16.4248V5.1748C6.25 4.90137 6.34766 4.66699 6.54297 4.47168C6.73828 4.27637 6.97266 4.17871 7.24609 4.17871ZM0 5.1748C0 4.90137 0.0976562 4.66699 0.292969 4.47168C0.488281 4.27637 0.722656 4.17871 0.996094 4.17871H13.4961C13.7695 4.17871 14.0039 4.27637 14.1992 4.47168C14.3945 4.66699 14.4922 4.90137 14.4922 5.1748V7.6748C14.4922 7.94824 14.3945 8.18262 14.1992 8.37793C14.0039 8.57324 13.7695 8.6709 13.4961 8.6709C13.2227 8.6709 12.9883 8.57324 12.793 8.37793C12.5977 8.18262 12.5 7.94824 12.5 7.6748V6.1709H1.99219V7.6748C1.99219 7.94824 1.89453 8.18262 1.69922 8.37793C1.50391 8.57324 1.26953 8.6709 0.996094 8.6709C0.722656 8.6709 0.488281 8.57324 0.292969 8.37793C0.0976562 8.18262 0 7.94824 0 7.6748V5.1748ZM3.75 16.4248C3.75 16.1514 3.84766 15.917 4.04297 15.7217C4.23828 15.5264 4.47266 15.4287 4.74609 15.4287H9.74609C10.0195 15.4287 10.2539 15.5264 10.4492 15.7217C10.6445 15.917 10.7422 16.1514 10.7422 16.4248C10.7422 16.6982 10.6445 16.9326 10.4492 17.1279C10.2539 17.3232 10.0195 17.4209 9.74609 17.4209H4.74609C4.47266 17.4209 4.23828 17.3232 4.04297 17.1279C3.84766 16.9326 3.75 16.6982 3.75 16.4248Z" fill="#2EBB77"/>
</g>
</svg>
