<svg width="70" height="71" viewBox="0 0 70 71" fill="none" xmlns="http://www.w3.org/2000/svg">
<g id="box-icon-21.svg" clip-path="url(#clip0_10313_756)">
<g id="Clip path group">
<mask id="mask0_10313_756" style="mask-type:luminance" maskUnits="userSpaceOnUse" x="0" y="0" width="70" height="71">
<g id="clip0_606_621">
<path id="Vector" d="M70 0.719971H0V70.72H70V0.719971Z" fill="white"/>
</g>
</mask>
<g mask="url(#mask0_10313_756)">
<g id="Group">
<path id="Vector_2" d="M67.2281 16.1653L35.4454 0.821895C35.1636 0.685996 34.8355 0.685996 34.5538 0.821895L2.77097 16.1653C2.41659 16.3363 2.19141 16.6952 2.19141 17.0887V54.3512C2.19141 54.7447 2.41659 55.1036 2.77097 55.2746L34.5537 70.618C34.6945 70.686 34.8471 70.72 34.9995 70.72C35.152 70.72 35.3044 70.686 35.4454 70.618L67.2281 55.2746C67.5825 55.1036 67.8076 54.7447 67.8076 54.3512V17.0888C67.8076 16.695 67.5823 16.3364 67.2281 16.1653ZM34.9995 2.88402L64.4237 17.0887L55.8942 21.2064C55.8402 21.1652 55.7832 21.1272 55.7206 21.097L26.4963 6.989L34.9995 2.88402ZM24.1806 8.14838L53.562 22.3324L47.5443 25.2375L18.175 11.0592L24.1806 8.14838ZM54.2494 24.2776V35.0163L48.6285 37.7299V26.9912L54.2494 24.2776ZM65.7569 53.7078L36.0249 68.0608V33.0756L43.1169 29.6519C43.6269 29.4056 43.8407 28.7927 43.5945 28.2826C43.3482 27.7728 42.7353 27.5587 42.2252 27.8051L34.9995 31.2935L32.1563 29.9208C31.6462 29.6743 31.0333 29.8884 30.7871 30.3984C30.5408 30.9083 30.7547 31.5214 31.2646 31.7676L33.9741 33.0756V68.0608L4.2422 53.7075V18.7223L26.8828 29.6523C27.0265 29.7217 27.1784 29.7546 27.3278 29.7546C27.709 29.7546 28.0751 29.541 28.2519 29.1747C28.4981 28.6648 28.2843 28.0517 27.7743 27.8055L5.57534 17.0887L15.7615 12.1712L46.5635 27.0411C46.568 27.0474 46.573 27.053 46.5777 27.0591V39.3637C46.5777 39.7166 46.7591 40.0446 47.058 40.2323C47.2239 40.3364 47.4133 40.3891 47.6032 40.3891C47.7552 40.3891 47.9077 40.3553 48.0489 40.2871L55.7206 36.5835C56.075 36.4125 56.3002 36.0537 56.3002 35.6601V23.2878L65.7569 18.7224V53.7078Z" fill="black"/>
<path id="Vector_3" d="M12.706 49.7309L8.04178 47.4793C7.53154 47.2328 6.91877 47.4469 6.67254 47.9569C6.42631 48.4668 6.64014 49.0799 7.1501 49.3261L11.8143 51.5777C11.958 51.6472 12.1099 51.68 12.2593 51.68C12.6405 51.68 13.0066 51.4664 13.1834 51.1002C13.4298 50.5901 13.2159 49.9773 12.706 49.7309Z" fill="black"/>
<path id="Vector_4" d="M16.9959 46.9368L8.04561 42.6159C7.53551 42.3697 6.9226 42.5835 6.67637 43.0936C6.43027 43.6036 6.6441 44.2166 7.15406 44.4628L16.1043 48.7837C16.248 48.853 16.3999 48.886 16.5493 48.886C16.9305 48.886 17.2966 48.6724 17.4734 48.3061C17.7196 47.7959 17.5058 47.1829 16.9959 46.9368Z" fill="black"/>
</g>
</g>
</g>
</g>
<defs>
<clipPath id="clip0_10313_756">
<rect width="70" height="70" fill="white" transform="translate(0 0.719971)"/>
</clipPath>
</defs>
</svg>
