<svg width="60" height="70" viewBox="0 0 60 70" fill="none" xmlns="http://www.w3.org/2000/svg">
<g id="Link &#226;&#134;&#146; SVG" clip-path="url(#clip0_8360_21521)">
<g id="Clip path group">
<mask id="mask0_8360_21521" style="mask-type:luminance" maskUnits="userSpaceOnUse" x="0" y="5" width="60" height="60">
<g id="clip0_208_7082">
<path id="Vector" d="M60 5H0V65H60V5Z" fill="white"/>
</g>
</mask>
<g mask="url(#mask0_8360_21521)">
<g id="Group">
<path id="Vector_2" d="M30.0001 18.1836C33.9802 18.1836 37.3543 15.2077 37.8489 11.2617C37.8803 11.0115 37.8026 10.7599 37.6358 10.5707C37.4689 10.3817 37.2289 10.2734 36.9768 10.2734H23.0235C22.7714 10.2734 22.5313 10.3817 22.3644 10.5707C22.1976 10.7598 22.12 11.0115 22.1514 11.2617C22.6459 15.2077 26.0201 18.1836 30.0001 18.1836ZM35.8974 12.0312C35.134 14.5951 32.7534 16.4258 30.0001 16.4258C27.2468 16.4258 24.8663 14.5951 24.1029 12.0312H35.8974Z" fill="#2EBB77"/>
<path id="Vector_3" d="M59.4574 15.3934L39.2554 7.02547C38.8407 6.85344 38.3865 6.75781 37.9101 6.75781H22.0899C21.6135 6.75781 21.1593 6.85344 20.7447 7.02582L0.542578 15.3934C0.214101 15.5294 0 15.8499 0 16.2053V30.3301C0 30.8156 0.393516 31.2089 0.878906 31.2089H11.5431L11.543 62.3633C11.543 62.5964 11.6355 62.8199 11.8005 62.9849C11.9652 63.1496 12.1888 63.2422 12.4219 63.2422H47.5779C48.0633 63.2422 48.4568 62.8488 48.4568 62.3633V52.6953H52.8513C53.3367 52.6953 53.7303 52.3019 53.7303 51.8164L53.7304 35.6035C53.7304 35.3705 53.6379 35.1469 53.473 34.9819L49.7001 31.2089H59.1211C59.6065 31.2089 60 30.8156 60 30.3301V16.2053C60 15.8499 59.7859 15.5294 59.4574 15.3934ZM37.9101 8.51562C38.8794 8.51562 39.668 9.30418 39.668 10.2734C39.668 15.6043 35.331 19.9414 30 19.9414C24.669 19.9414 20.332 15.6043 20.332 10.2734C20.332 9.30418 21.1206 8.51562 22.0899 8.51562H37.9101ZM51.9724 50.9375H43.1834L43.1836 35.9676L47.5781 31.5731L51.9727 35.9676L51.9724 50.9375ZM58.2422 29.4512H48.4569L48.4571 15.321C48.4571 14.8356 48.0636 14.4421 47.5782 14.4421C47.0929 14.4421 46.6994 14.8356 46.6994 15.321L46.6991 29.9661L41.6832 34.9819C41.5184 35.1468 41.4258 35.3703 41.4258 35.6035L41.4255 51.8164C41.4255 52.0495 41.5181 52.273 41.683 52.438C41.8478 52.6027 42.0714 52.6953 42.3045 52.6953H46.6989V61.4843H13.3008L13.3009 15.321C13.3009 14.8355 12.9074 14.4421 12.422 14.4421C11.9366 14.4421 11.5431 14.8355 11.5431 15.321V29.4512H1.75781V16.7926L18.6051 9.81407C18.5854 9.96453 18.5742 10.1176 18.5742 10.2733C18.5742 16.5736 23.6997 21.6991 30 21.6991C36.3003 21.6991 41.4258 16.5736 41.4258 10.2733C41.4258 10.1176 41.4146 9.96453 41.3949 9.81407L58.2422 16.7927V29.4512Z" fill="#2EBB77"/>
</g>
</g>
</g>
</g>
<defs>
<clipPath id="clip0_8360_21521">
<rect width="60" height="70" fill="white"/>
</clipPath>
</defs>
</svg>
