<svg width="60" height="70" viewBox="0 0 60 70" fill="none" xmlns="http://www.w3.org/2000/svg">
<g id="SVG" clip-path="url(#clip0_8360_21533)">
<g id="Clip path group">
<mask id="mask0_8360_21533" style="mask-type:luminance" maskUnits="userSpaceOnUse" x="0" y="5" width="60" height="60">
<g id="clip0_606_621">
<path id="Vector" d="M60 5H0V65H60V5Z" fill="white"/>
</g>
</mask>
<g mask="url(#mask0_8360_21533)">
<g id="Group">
<path id="Vector_2" d="M57.6247 18.2389L30.3823 5.08736C30.1408 4.97088 29.8596 4.97088 29.6181 5.08736L2.37567 18.2389C2.07192 18.3855 1.87891 18.6931 1.87891 19.0304V50.9697C1.87891 51.3069 2.07192 51.6146 2.37567 51.7611L29.618 64.9126C29.7387 64.9709 29.8695 65.0001 30.0001 65.0001C30.1309 65.0001 30.2615 64.9709 30.3823 64.9126L57.6247 51.7611C57.9284 51.6146 58.1214 51.3069 58.1214 50.9697V19.0305C58.1214 18.6929 57.9283 18.3855 57.6247 18.2389ZM30.0001 6.8549L55.2209 19.0304L47.9099 22.5598C47.8636 22.5245 47.8147 22.4919 47.7611 22.4661L22.7117 10.3735L30.0001 6.8549ZM20.7268 11.3672L45.9109 23.525L40.7528 26.0151L15.5791 13.8622L20.7268 11.3672ZM46.5001 25.1923V34.3969L41.6821 36.7228V27.5182L46.5001 25.1923ZM56.3636 50.4182L30.8791 62.7207V32.7334L36.9579 29.7988C37.3951 29.5877 37.5783 29.0624 37.3673 28.6251C37.1562 28.1882 36.6308 28.0047 36.1936 28.2159L30.0001 31.2059L27.5631 30.0293C27.1259 29.818 26.6005 30.0015 26.3895 30.4387C26.1784 30.8757 26.3617 31.4013 26.7988 31.6123L29.1212 32.7334V62.7207L3.63673 50.4179V20.4306L23.043 29.7992C23.1661 29.8587 23.2963 29.8869 23.4244 29.8869C23.7511 29.8869 24.0649 29.7038 24.2165 29.3898C24.4275 28.9527 24.2443 28.4272 23.8071 28.2162L4.77942 19.0304L13.5104 14.8154L39.9121 27.561C39.916 27.5664 39.9203 27.5712 39.9243 27.5764V38.1232C39.9243 38.4257 40.0798 38.7069 40.336 38.8677C40.4782 38.957 40.6405 39.0021 40.8033 39.0021C40.9336 39.0021 41.0643 38.9732 41.1853 38.9147L47.7611 35.7402C48.0649 35.5936 48.2579 35.2861 48.2579 34.9487V24.3439L56.3636 20.4307V50.4182Z" fill="#2EBB77"/>
<path id="Vector_3" d="M10.89 47.0094L6.89212 45.0794C6.45477 44.8681 5.92954 45.0517 5.71848 45.4888C5.50743 45.9259 5.69071 46.4514 6.12782 46.6624L10.1257 48.5923C10.2488 48.6519 10.379 48.68 10.5071 48.68C10.8338 48.68 11.1476 48.4969 11.2992 48.1831C11.5104 47.7458 11.327 47.2206 10.89 47.0094Z" fill="#2EBB77"/>
<path id="Vector_4" d="M14.5696 44.6145L6.89791 40.9109C6.46068 40.6998 5.93533 40.8831 5.72427 41.3203C5.51333 41.7575 5.69661 42.2829 6.13372 42.4939L13.8054 46.1975C13.9286 46.2569 14.0588 46.2852 14.1868 46.2852C14.5136 46.2852 14.8274 46.1021 14.9789 45.7882C15.1899 45.3509 15.0067 44.8254 14.5696 44.6145Z" fill="#2EBB77"/>
</g>
</g>
</g>
</g>
<defs>
<clipPath id="clip0_8360_21533">
<rect width="60" height="70" fill="white"/>
</clipPath>
</defs>
</svg>
