<svg width="48" height="49" viewBox="0 0 48 49" fill="none" xmlns="http://www.w3.org/2000/svg">
<g id="Icon" clip-path="url(#clip0_8360_22303)">
<path id="Vector" d="M43.7812 6.37378H41.8125V4.49878C41.8125 3.34253 41.3984 2.35034 40.5703 1.52222C39.7422 0.694092 38.75 0.280029 37.5938 0.280029H4.21875C3.0625 0.280029 2.07031 0.694092 1.24219 1.52222C0.414063 2.35034 0 3.34253 0 4.49878V27.28C0 28.4363 0.414063 29.4285 1.24219 30.2566C2.07031 31.0847 3.0625 31.4988 4.21875 31.4988H6.1875V33.3738C6.1875 34.53 6.60156 35.5222 7.42969 36.3503C8.25781 37.1785 9.25 37.5925 10.4062 37.5925H24.8906C25.2656 38.8113 25.7812 39.9832 26.4375 41.1082C27.0938 42.2019 27.8828 43.2175 28.8047 44.155C29.7266 45.0925 30.7656 45.905 31.9219 46.5925C33.0781 47.28 34.3438 47.8269 35.7188 48.2332C35.8438 48.2644 35.9688 48.28 36.0938 48.28C36.2188 48.28 36.3438 48.2644 36.4688 48.2332C38.1562 47.7332 39.7031 46.9988 41.1094 46.03C42.5156 45.0613 43.7344 43.905 44.7656 42.5613C45.7969 41.2175 46.5938 39.7332 47.1562 38.1082C47.7188 36.4519 48 34.7332 48 32.9519C48 32.7332 48 31.4832 48 29.2019C48 26.9519 48 24.491 48 21.8191C48 19.1472 48 16.6707 48 14.3894C48 12.1082 48 10.8425 48 10.5925C48 9.43628 47.5859 8.44409 46.7578 7.61597C45.9297 6.78784 44.9375 6.37378 43.7812 6.37378ZM45.1875 10.5925V14.6238H25.4062V13.03C25.4062 12.655 25.2656 12.3269 24.9844 12.0457C24.7031 11.7644 24.375 11.6238 24 11.6238H13.5C13.125 11.6238 12.7969 11.7644 12.5156 12.0457C12.2344 12.3269 12.0938 12.655 12.0938 13.03V14.6238H9V10.5925C9 10.2175 9.14062 9.8894 9.42188 9.60815C9.70312 9.3269 10.0312 9.18628 10.4062 9.18628H43.7812C44.1562 9.18628 44.4844 9.3269 44.7656 9.60815C45.0469 9.8894 45.1875 10.2175 45.1875 10.5925ZM14.9062 14.4363H22.5938V17.6238H14.9062V14.4363ZM4.21875 28.6863C3.84375 28.6863 3.51562 28.5457 3.23438 28.2644C2.95312 27.9832 2.8125 27.655 2.8125 27.28V4.49878C2.8125 4.12378 2.95312 3.79565 3.23438 3.5144C3.51562 3.23315 3.84375 3.09253 4.21875 3.09253H37.5938C37.9688 3.09253 38.2969 3.23315 38.5781 3.5144C38.8594 3.79565 39 4.12378 39 4.49878V6.37378H10.4062C9.25 6.37378 8.25781 6.78784 7.42969 7.61597C6.60156 8.44409 6.1875 9.43628 6.1875 10.5925V28.6863H4.21875ZM10.4062 34.78C10.0312 34.78 9.70312 34.6394 9.42188 34.3582C9.14062 34.0769 9 33.7488 9 33.3738V17.4363H12.0938V19.03C12.0938 19.405 12.2344 19.7332 12.5156 20.0144C12.7969 20.2957 13.125 20.4363 13.5 20.4363H24C24.375 20.4363 24.7031 20.2957 24.9844 20.0144C25.2656 19.7332 25.4062 19.405 25.4062 19.03V17.4363H45.1875V23.6707C43.6875 23.5457 42.2344 23.1941 40.8281 22.616C39.4219 22.0378 38.1406 21.2644 36.9844 20.2957C36.7344 20.0769 36.4375 19.9675 36.0938 19.9675C35.75 19.9675 35.4531 20.0769 35.2031 20.2957C33.9219 21.3582 32.4688 22.1941 30.8438 22.8035C29.2188 23.4128 27.4688 23.7175 25.5938 23.7175C25.2188 23.7175 24.8906 23.8582 24.6094 24.1394C24.3281 24.4207 24.1875 24.7488 24.1875 25.1238V28.8738H22.5938C22.2188 28.8738 21.8906 29.0144 21.6094 29.2957C21.3281 29.5769 21.1875 29.905 21.1875 30.28C21.1875 30.655 21.3281 30.9832 21.6094 31.2644C21.8906 31.5457 22.2188 31.6863 22.5938 31.6863H24.1875C24.1875 32.3425 24.1875 32.8894 24.1875 33.3269C24.1875 33.7644 24.2188 34.2488 24.2812 34.78H10.4062ZM45.1875 32.9519C45.1875 34.3582 44.9688 35.7175 44.5312 37.03C44.0938 38.3425 43.4688 39.5457 42.6562 40.6394C41.8438 41.7332 40.8906 42.7019 39.7969 43.5457C38.6719 44.3582 37.4375 44.9832 36.0938 45.4207C34.75 44.9832 33.5156 44.3582 32.3906 43.5457C31.2969 42.7019 30.3438 41.7332 29.5312 40.6394C28.7188 39.5457 28.0938 38.3425 27.6562 37.03C27.2188 35.7175 27 34.3582 27 32.9519V26.4832C28.625 26.3582 30.2109 26.0144 31.7578 25.4519C33.3047 24.8894 34.75 24.1238 36.0938 23.155C37.4375 24.1238 38.8828 24.8894 40.4297 25.4519C41.9766 26.0144 43.5625 26.3582 45.1875 26.4832V32.9519ZM16.5938 28.8738H13.5938C13.2188 28.8738 12.8906 29.0144 12.6094 29.2957C12.3281 29.5769 12.1875 29.905 12.1875 30.28C12.1875 30.655 12.3281 30.9832 12.6094 31.2644C12.8906 31.5457 13.2188 31.6863 13.5938 31.6863H16.5938C16.9688 31.6863 17.2969 31.5457 17.5781 31.2644C17.8594 30.9832 18 30.655 18 30.28C18 29.905 17.8594 29.5769 17.5781 29.2957C17.2969 29.0144 16.9688 28.8738 16.5938 28.8738ZM34.0781 32.4832C33.7969 32.2019 33.4688 32.0613 33.0938 32.0613C32.7188 32.0613 32.3906 32.2019 32.1094 32.4832C31.8281 32.7644 31.6875 33.0925 31.6875 33.4675C31.6875 33.8425 31.8281 34.1707 32.1094 34.4519L35.1094 37.4519C35.3906 37.7332 35.7188 37.8738 36.0938 37.8738C36.4688 37.8738 36.7969 37.7332 37.0781 37.4519L42.8906 31.6394C43.1719 31.3582 43.3125 31.03 43.3125 30.655C43.3125 30.28 43.1719 29.9519 42.8906 29.6707C42.6094 29.3894 42.2812 29.2488 41.9062 29.2488C41.5312 29.2488 41.2031 29.3894 40.9219 29.6707L36.0938 34.4988L34.0781 32.4832Z" fill="#2EBB77"/>
</g>
<defs>
<clipPath id="clip0_8360_22303">
<rect width="48" height="48" fill="white" transform="matrix(1 0 0 -1 0 48.28)"/>
</clipPath>
</defs>
</svg>
