<svg width="48" height="49" viewBox="0 0 48 49" fill="none" xmlns="http://www.w3.org/2000/svg">
<g id="Icon" clip-path="url(#clip0_8360_22296)">
<path id="Vector" d="M34.4531 38.7175L30.2344 34.4519C29.8281 34.0457 29.3438 33.741 28.7812 33.5378C28.2188 33.3347 27.6406 33.2488 27.0469 33.28C26.4844 33.3425 25.9453 33.5222 25.4297 33.8191C24.9141 34.116 24.5 34.4988 24.1875 34.9675C24.1562 34.9988 24.1406 35.0144 24.1406 35.0144C24.1406 35.0144 24.125 35.03 24.0938 35.0613L23.4375 36.2332C22.625 36.0144 21.5078 35.5925 20.0859 34.9675C18.6641 34.3425 17.3281 33.405 16.0781 32.155C14.8281 30.905 13.8984 29.5613 13.2891 28.1238C12.6797 26.6863 12.2656 25.5769 12.0469 24.7957L13.2188 24.0925C13.2188 24.0925 13.2266 24.0847 13.2422 24.0691C13.2578 24.0535 13.2812 24.0457 13.3125 24.0457C13.7812 23.7019 14.1641 23.28 14.4609 22.78C14.7578 22.28 14.9375 21.7332 15 21.1394C15.0625 20.5457 14.9922 19.9753 14.7891 19.4285C14.5859 18.8816 14.2656 18.3894 13.8281 17.9519L9.60938 13.7332C8.98438 13.1082 8.25 12.7253 7.40625 12.5847C6.5625 12.4441 5.76562 12.5613 5.01562 12.9363C3.67188 13.6238 2.59375 14.5613 1.78125 15.7488C0.96875 16.9363 0.4375 18.3269 0.1875 19.9207C-0.0625 21.4207 -0.0625 23.0144 0.1875 24.7019C0.46875 26.3894 0.96875 28.1003 1.6875 29.8347C2.40625 31.5691 3.34375 33.28 4.5 34.9675C5.625 36.655 6.9375 38.2488 8.4375 39.7488C9.75 41.0925 11.1562 42.28 12.6562 43.3113C14.125 44.3738 15.6172 45.2722 17.1328 46.0066C18.6484 46.741 20.1719 47.3113 21.7031 47.7175C23.2344 48.0925 24.7031 48.28 26.1094 48.28C26.4531 48.28 26.8047 48.2644 27.1641 48.2332C27.5234 48.2019 27.8594 48.1707 28.1719 48.1394C29.7969 47.8894 31.2031 47.3582 32.3906 46.5457C33.5781 45.7332 34.5156 44.655 35.2031 43.3113C35.6094 42.5613 35.7422 41.7644 35.6016 40.9207C35.4609 40.0769 35.0781 39.3425 34.4531 38.7175ZM32.6719 41.9988C32.2031 42.9363 31.5547 43.6785 30.7266 44.2253C29.8984 44.7722 28.9062 45.1238 27.75 45.28C26.5 45.4988 25.1406 45.4675 23.6719 45.1863C22.2031 44.9363 20.7109 44.4753 19.1953 43.8035C17.6797 43.1316 16.1719 42.28 14.6719 41.2488C13.1719 40.2175 11.7656 39.0457 10.4531 37.7332C9.14062 36.3894 7.96875 34.9675 6.9375 33.4675C5.9375 31.9988 5.10938 30.4988 4.45312 28.9675C3.79688 27.4363 3.34375 25.9363 3.09375 24.4675C2.8125 22.9988 2.78125 21.6394 3 20.3894C3.1875 19.2332 3.55469 18.241 4.10156 17.4128C4.64844 16.5847 5.375 15.9363 6.28125 15.4675C6.375 15.4363 6.46094 15.4128 6.53906 15.3972C6.61719 15.3816 6.6875 15.3738 6.75 15.3738C6.90625 15.3738 7.05469 15.405 7.19531 15.4675C7.33594 15.53 7.46875 15.6238 7.59375 15.7488L11.8125 19.9675C11.9375 20.0925 12.0312 20.2332 12.0938 20.3894C12.1562 20.5457 12.1719 20.7175 12.1406 20.905C12.1406 20.9988 12.1094 21.116 12.0469 21.2566C11.9844 21.3972 11.875 21.53 11.7188 21.655L9.70312 22.8269C9.45312 22.9832 9.26562 23.1941 9.14062 23.4597C9.01562 23.7253 8.96875 23.9988 9 24.28C9.03125 24.405 9.375 25.5769 10.0312 27.7957C10.6875 30.0144 12.0156 32.1394 14.0156 34.1707C16.0469 36.2019 18.1641 37.5535 20.3672 38.2253C22.5703 38.8972 23.7344 39.2488 23.8594 39.28C24.1719 39.3113 24.4609 39.2644 24.7266 39.1394C24.9922 39.0144 25.2031 38.8269 25.3594 38.5769L26.5312 36.5613C26.6562 36.405 26.7969 36.2957 26.9531 36.2332C27.1094 36.1707 27.2344 36.1394 27.3281 36.1394C27.4844 36.1394 27.6406 36.1628 27.7969 36.2097C27.9531 36.2566 28.0938 36.3425 28.2188 36.4675L32.4375 40.7332C32.625 40.8894 32.7422 41.0925 32.7891 41.3425C32.8359 41.5925 32.7969 41.8113 32.6719 41.9988ZM33.9844 19.0769C33.6094 19.0769 33.2734 19.2175 32.9766 19.4988C32.6797 19.78 32.5312 20.1082 32.5312 20.4832C32.5625 20.8894 32.7109 21.2332 32.9766 21.5144C33.2422 21.7957 33.5781 21.9363 33.9844 21.9363C34.3594 21.9363 34.6953 21.7957 34.9922 21.5144C35.2891 21.2332 35.4219 20.8894 35.3906 20.4832C35.3906 20.1082 35.2578 19.78 34.9922 19.4988C34.7266 19.2175 34.3906 19.0769 33.9844 19.0769ZM33.9844 6.56128C32.7344 6.56128 31.6719 6.99878 30.7969 7.87378C29.9219 8.74878 29.4844 9.81128 29.4844 11.0613C29.4844 11.4675 29.6172 11.8113 29.8828 12.0925C30.1484 12.3738 30.4844 12.5144 30.8906 12.5144C31.2969 12.5144 31.6328 12.3738 31.8984 12.0925C32.1641 11.8113 32.2969 11.4675 32.2969 11.0613C32.2969 10.5925 32.4609 10.2019 32.7891 9.8894C33.1172 9.5769 33.5156 9.42065 33.9844 9.42065C34.4531 9.42065 34.8438 9.5769 35.1562 9.8894C35.4688 10.2019 35.625 10.5925 35.625 11.0613C35.625 11.53 35.4688 11.9285 35.1562 12.2566C34.8438 12.5847 34.4531 12.7488 33.9844 12.7488C33.5781 12.7488 33.2344 12.8894 32.9531 13.1707C32.6719 13.4519 32.5312 13.78 32.5312 14.155V16.405C32.5312 16.78 32.6719 17.1082 32.9531 17.3894C33.2344 17.6707 33.5781 17.8113 33.9844 17.8113C34.3906 17.8113 34.7266 17.6707 34.9922 17.3894C35.2578 17.1082 35.3906 16.78 35.3906 16.405V15.3738C36.2969 15.0613 37.0391 14.5144 37.6172 13.7332C38.1953 12.9519 38.4844 12.0613 38.4844 11.0613C38.4844 9.81128 38.0469 8.74878 37.1719 7.87378C36.2969 6.99878 35.2344 6.56128 33.9844 6.56128ZM43.7812 4.40503C42.4375 3.03003 40.8906 1.99097 39.1406 1.28784C37.3906 0.584717 35.5625 0.248779 33.6562 0.280029C31.8125 0.311279 30.0547 0.686279 28.3828 1.40503C26.7109 2.12378 25.2188 3.15503 23.9062 4.49878C22.5938 5.81128 21.5938 7.31128 20.9062 8.99878C20.2188 10.6863 19.875 12.4519 19.875 14.2957C19.875 15.3269 19.9922 16.3503 20.2266 17.366C20.4609 18.3816 20.7969 19.3582 21.2344 20.2957L19.4062 25.4988C19.25 25.9675 19.2266 26.4441 19.3359 26.9285C19.4453 27.4128 19.6719 27.8269 20.0156 28.1707C20.2656 28.4207 20.5469 28.6082 20.8594 28.7332C21.1719 28.8582 21.5 28.9207 21.8438 28.9207C21.9688 28.9207 22.1016 28.905 22.2422 28.8738C22.3828 28.8425 22.5312 28.8113 22.6875 28.78L27.8906 26.9519C28.8281 27.3894 29.8047 27.7253 30.8203 27.9597C31.8359 28.1941 32.8594 28.3113 33.8906 28.3113C35.7344 28.3113 37.5 27.9675 39.1875 27.28C40.875 26.5925 42.375 25.5925 43.6875 24.28C45.0312 22.9675 46.0625 21.4753 46.7812 19.8035C47.5 18.1316 47.875 16.3738 47.9062 14.53C47.9375 12.6238 47.6016 10.7957 46.8984 9.04565C46.1953 7.29565 45.1562 5.74878 43.7812 4.40503ZM45.0469 14.4832C45.0156 15.9832 44.7031 17.405 44.1094 18.7488C43.5156 20.0925 42.7109 21.2566 41.6953 22.241C40.6797 23.2253 39.5 24.0144 38.1562 24.6082C36.8125 25.1707 35.3906 25.4519 33.8906 25.4519C32.9844 25.4519 32.0859 25.3425 31.1953 25.1238C30.3047 24.905 29.4688 24.5925 28.6875 24.1863C28.5 24.0925 28.3125 24.0378 28.125 24.0222C27.9375 24.0066 27.75 24.03 27.5625 24.0925L22.3125 25.8738L24.0938 20.6238C24.1562 20.4363 24.1797 20.2488 24.1641 20.0613C24.1484 19.8738 24.0938 19.6863 24 19.4988C23.5938 18.7175 23.2812 17.8816 23.0625 16.991C22.8438 16.1003 22.7344 15.2019 22.7344 14.2957C22.7344 12.7957 23.0156 11.3738 23.5781 10.03C24.1719 8.68628 24.9609 7.50659 25.9453 6.49097C26.9297 5.47534 28.0938 4.67065 29.4375 4.0769C30.7812 3.48315 32.2031 3.17065 33.7031 3.1394C33.7344 3.1394 33.7656 3.1394 33.7969 3.1394C33.8281 3.1394 33.8594 3.1394 33.8906 3.1394C35.3906 3.1394 36.8203 3.42065 38.1797 3.98315C39.5391 4.54565 40.7344 5.35815 41.7656 6.42065C42.8594 7.48315 43.6875 8.70972 44.25 10.1003C44.8125 11.491 45.0781 12.9519 45.0469 14.4832Z" fill="#2EBB77"/>
</g>
<defs>
<clipPath id="clip0_8360_22296">
<rect width="48" height="48" fill="white" transform="matrix(1 0 0 -1 0 48.28)"/>
</clipPath>
</defs>
</svg>
