<svg width="48" height="49" viewBox="0 0 48 49" fill="none" xmlns="http://www.w3.org/2000/svg">
<g id="Icon" clip-path="url(#clip0_8360_22289)">
<path id="Vector" d="M38.4375 0.280029C38.8125 0.280029 39.1406 0.420654 39.4219 0.701904C39.7031 0.983154 39.8438 1.31128 39.8438 1.68628V20.3425C41.0625 20.9675 42.1719 21.7332 43.1719 22.6394C44.1719 23.5457 45.0312 24.5691 45.75 25.7097C46.4688 26.8503 47.0312 28.0925 47.4375 29.4363C47.8125 30.7488 48 32.1082 48 33.5144C48 35.5769 47.6094 37.4988 46.8281 39.28C46.0781 41.0613 45.0312 42.6238 43.6875 43.9675C42.3438 45.3113 40.7812 46.3582 39 47.1082C37.2188 47.8894 35.3125 48.28 33.2812 48.28C31.8438 48.28 30.4688 48.0925 29.1562 47.7175C27.8125 47.3113 26.5703 46.7488 25.4297 46.03C24.2891 45.3113 23.2656 44.4519 22.3594 43.4519C21.4531 42.4519 20.6875 41.3425 20.0625 40.1238H1.40625C1.03125 40.1238 0.703125 39.9832 0.421875 39.7019C0.140625 39.4207 0 39.0925 0 38.7175V1.68628C0 1.31128 0.140625 0.983154 0.421875 0.701904C0.703125 0.420654 1.03125 0.280029 1.40625 0.280029H38.4375ZM26.625 3.09253V10.9675C26.625 11.4675 26.3984 11.866 25.9453 12.1628C25.4922 12.4597 25.0156 12.4675 24.5156 12.1863L19.9219 9.84253L15.2344 12.2332C14.7656 12.4519 14.3125 12.4285 13.875 12.1628C13.4375 11.8972 13.2188 11.4988 13.2188 10.9675V3.09253H2.8125V37.3113H18.9844C18.6719 36.03 18.5156 34.7332 18.5156 33.4207C18.5156 32.1394 18.6875 30.8816 19.0312 29.6472C19.375 28.4128 19.8594 27.2488 20.4844 26.155C21.1406 25.03 21.9219 24.0144 22.8281 23.1082C23.7344 22.2019 24.75 21.4207 25.875 20.7644C26.9688 20.1394 28.1328 19.655 29.3672 19.3113C30.6016 18.9675 31.8594 18.7957 33.1406 18.7957C34.4531 18.7957 35.75 18.9519 37.0312 19.2644V3.09253H26.625ZM28.7812 39.7488H35.3438C36.0938 39.7488 36.7969 39.6082 37.4531 39.3269C38.1094 39.0457 38.6875 38.655 39.1875 38.155C39.7188 37.6238 40.1172 37.03 40.3828 36.3738C40.6484 35.7175 40.7812 34.9988 40.7812 34.2175C40.7812 32.7175 40.25 31.4363 39.1875 30.3738C38.125 29.3113 36.8438 28.78 35.3438 28.78H31.4531L32.25 27.9363C32.9062 27.28 32.9062 26.6238 32.25 25.9675C31.5938 25.3113 30.9375 25.3113 30.2812 25.9675L27.0469 29.2019C26.7656 29.4832 26.625 29.8191 26.625 30.2097C26.625 30.6003 26.7656 30.9207 27.0469 31.1707L30.2812 34.405C30.9375 35.0613 31.5938 35.0613 32.25 34.405C32.9062 33.7488 32.9062 33.0925 32.25 32.4363L31.4062 31.5925H35.3438C36.0938 31.5925 36.7188 31.8582 37.2188 32.3894C37.7188 32.9207 37.9688 33.5613 37.9688 34.3113C37.9688 35.03 37.7109 35.6472 37.1953 36.1628C36.6797 36.6785 36.0625 36.9363 35.3438 36.9363H28.7812C28.4062 36.9363 28.0781 37.0769 27.7969 37.3582C27.5156 37.6394 27.375 37.9675 27.375 38.3425C27.375 38.7175 27.5156 39.0457 27.7969 39.3269C28.0781 39.6082 28.4062 39.7488 28.7812 39.7488ZM24.8438 25.1238C23.6562 26.28 22.7812 27.5925 22.2188 29.0613C21.625 30.53 21.3281 32.0222 21.3281 33.5378C21.3281 35.0535 21.625 36.5457 22.2188 38.0144C22.7812 39.4832 23.6562 40.7957 24.8438 41.9519C26 43.1394 27.3125 44.0144 28.7812 44.5769C30.25 45.1707 31.7422 45.4675 33.2578 45.4675C34.7734 45.4675 36.2656 45.1707 37.7344 44.5769C39.2031 44.0144 40.5156 43.1394 41.6719 41.9519C42.8594 40.7957 43.7344 39.4832 44.2969 38.0144C44.8906 36.5457 45.1875 35.0535 45.1875 33.5378C45.1875 32.0222 44.8906 30.53 44.2969 29.0613C43.7344 27.5925 42.8594 26.28 41.6719 25.1238C40.5156 23.9363 39.2031 23.0613 37.7344 22.4988C36.2656 21.905 34.7734 21.6082 33.2578 21.6082C31.7422 21.6082 30.25 21.905 28.7812 22.4988C27.3125 23.0613 26 23.9363 24.8438 25.1238ZM23.8125 3.09253H16.0312V8.67065L19.2656 7.03003C19.4844 6.93628 19.7031 6.8894 19.9219 6.8894C20.1406 6.8894 20.3438 6.93628 20.5312 7.03003L23.8125 8.67065V3.09253Z" fill="#2EBB77"/>
</g>
<defs>
<clipPath id="clip0_8360_22289">
<rect width="48" height="48" fill="white" transform="matrix(1 0 0 -1 0 48.28)"/>
</clipPath>
</defs>
</svg>
